<svg xmlns="http://www.w3.org/2000/svg" width="700" height="386" viewBox="0 0 700 386" id="svg"><defs><marker id="arrow-A" markerWidth="8" markerHeight="8" viewBox="0 0 10 10" refX="8" refY="5" orient="auto-start-reverse" markerUnits="userSpaceOnUse"><path d="M0,0 L10,5 L0,10 z" fill="#1d4ed8"/></marker><marker id="arrow-B" markerWidth="8" markerHeight="8" viewBox="0 0 10 10" refX="8" refY="5" orient="auto-start-reverse" markerUnits="userSpaceOnUse"><path d="M0,0 L10,5 L0,10 z" fill="#c0233b"/></marker></defs><rect x="52" y="56" width="164" height="274" fill="#111"/><rect x="53" y="57" width="162" height="272" fill="#fff"/><rect x="56" y="60" width="156" height="266" fill="#0a7d3c"/><line x1="134" y1="60" x2="134" y2="326" stroke="#fff" stroke-width="2"/><line x1="38" y1="193" x2="230" y2="193" stroke="#cfd4d9" stroke-width="4" stroke-linecap="round"/><text x="46" y="326" font-family="system-ui, -apple-system, Segoe UI, Roboto, sans-serif" font-weight="700" font-size="13" text-anchor="end" fill="#1d4ed8">A</text><text x="46" y="68" font-family="system-ui, -apple-system, Segoe UI, Roboto, sans-serif" font-weight="700" font-size="13" text-anchor="end" fill="#c0233b">B</text><text x="191.62" y="356" font-family="system-ui, -apple-system, Segoe UI, Roboto, sans-serif" font-weight="700" font-size="20" text-anchor="middle" fill="#1d4ed8" stroke="#fff" stroke-width="3.5" paint-order="stroke" stroke-linejoin="round">VHT diag</text><text x="76.38" y="42" font-family="system-ui, -apple-system, Segoe UI, Roboto, sans-serif" font-weight="700" font-size="20" text-anchor="middle" fill="#c0233b" stroke="#fff" stroke-width="3.5" paint-order="stroke" stroke-linejoin="round">Block</text><path d="M191.62,316.3 L76.38,69.7" fill="none" stroke="#1d4ed8" stroke-width="3" stroke-linecap="round" marker-end="url(#arrow-A)"/><path d="M76.38,69.7 L134,316.3" fill="none" stroke="#c0233b" stroke-width="3" stroke-linecap="round" marker-end="url(#arrow-B)"/><rect x="268" y="56" width="164" height="274" fill="#111"/><rect x="269" y="57" width="162" height="272" fill="#fff"/><rect x="272" y="60" width="156" height="266" fill="#0a7d3c"/><line x1="350" y1="60" x2="350" y2="326" stroke="#fff" stroke-width="2"/><line x1="254" y1="193" x2="446" y2="193" stroke="#cfd4d9" stroke-width="4" stroke-linecap="round"/><text x="262" y="326" font-family="system-ui, -apple-system, Segoe UI, Roboto, sans-serif" font-weight="700" font-size="13" text-anchor="end" fill="#1d4ed8">A</text><text x="262" y="68" font-family="system-ui, -apple-system, Segoe UI, Roboto, sans-serif" font-weight="700" font-size="13" text-anchor="end" fill="#c0233b">B</text><text x="350" y="356" font-family="system-ui, -apple-system, Segoe UI, Roboto, sans-serif" font-weight="700" font-size="20" text-anchor="middle" fill="#1d4ed8" stroke="#fff" stroke-width="3.5" paint-order="stroke" stroke-linejoin="round">VHT</text><text x="407.62" y="42" font-family="system-ui, -apple-system, Segoe UI, Roboto, sans-serif" font-weight="700" font-size="20" text-anchor="middle" fill="#c0233b" stroke="#fff" stroke-width="3.5" paint-order="stroke" stroke-linejoin="round">Block</text><path d="M350,316.3 L407.62,69.7" fill="none" stroke="#1d4ed8" stroke-width="3" stroke-linecap="round" marker-end="url(#arrow-A)"/><path d="M407.62,69.7 L292.38,316.3" fill="none" stroke="#c0233b" stroke-width="3" stroke-linecap="round" marker-end="url(#arrow-B)"/><rect x="484" y="56" width="164" height="274" fill="#111"/><rect x="485" y="57" width="162" height="272" fill="#fff"/><rect x="488" y="60" width="156" height="266" fill="#0a7d3c"/><line x1="566" y1="60" x2="566" y2="326" stroke="#fff" stroke-width="2"/><line x1="470" y1="193" x2="662" y2="193" stroke="#cfd4d9" stroke-width="4" stroke-linecap="round"/><text x="478" y="326" font-family="system-ui, -apple-system, Segoe UI, Roboto, sans-serif" font-weight="700" font-size="13" text-anchor="end" fill="#1d4ed8">A</text><text x="478" y="68" font-family="system-ui, -apple-system, Segoe UI, Roboto, sans-serif" font-weight="700" font-size="13" text-anchor="end" fill="#c0233b">B</text><text x="508.38" y="356" font-family="system-ui, -apple-system, Segoe UI, Roboto, sans-serif" font-weight="700" font-size="20" text-anchor="middle" fill="#1d4ed8" stroke="#fff" stroke-width="3.5" paint-order="stroke" stroke-linejoin="round">RHT</text><text x="508.38" y="42" font-family="system-ui, -apple-system, Segoe UI, Roboto, sans-serif" font-weight="700" font-size="20" text-anchor="middle" fill="#c0233b" stroke="#fff" stroke-width="3.5" paint-order="stroke" stroke-linejoin="round">Block</text><path d="M508.38,316.3 L508.38,69.7" fill="none" stroke="#1d4ed8" stroke-width="3" stroke-linecap="round" marker-end="url(#arrow-A)"/><path d="M508.38,69.7 L623.62,316.3" fill="none" stroke="#c0233b" stroke-width="3" stroke-linecap="round" marker-end="url(#arrow-B)"/></svg>
